<?xml version="1.0" standalone="no"?>
<!DOCTYPE svg PUBLIC "-//W3C//DTD SVG 20010904//EN"
 "http://www.w3.org/TR/2001/REC-SVG-20010904/DTD/svg10.dtd">
<svg version="1.0" xmlns="http://www.w3.org/2000/svg"
 width="832.000000pt" height="832.000000pt" viewBox="0 0 832.000000 832.000000"
 preserveAspectRatio="xMidYMid meet">
<metadata>
Created by potrace 1.11, written by Peter Selinger 2001-2013
</metadata>
<g transform="translate(0.000000,832.000000) scale(0.100000,-0.100000)"
fill="#000000" stroke="none">
<path d="M450 6699 c-36 -11 -70 -21 -75 -22 -26 -6 -104 -53 -145 -86 -109
-88 -171 -184 -210 -323 -20 -72 -20 -88 -18 -2128 l3 -2055 28 -79 c33 -94
102 -196 168 -251 27 -22 55 -45 62 -51 29 -25 123 -66 191 -84 69 -18 188
-19 3706 -19 3625 -1 3636 -1 3705 19 39 12 75 22 81 23 6 2 23 10 37 20 15 9
31 17 36 17 20 0 161 122 161 140 0 4 4 10 8 12 17 6 75 102 88 143 47 149 44
-25 44 2180 0 1816 -2 2037 -16 2100 -9 39 -20 74 -25 80 -5 5 -9 17 -9 27 0
10 -4 18 -10 18 -5 0 -10 9 -10 20 0 11 -4 20 -10 20 -5 0 -10 7 -10 15 0 8
-4 15 -10 15 -5 0 -10 5 -10 10 0 11 -37 55 -80 97 -64 62 -173 121 -270 147
-48 13 -540 15 -3700 15 -3589 0 -3646 -1 -3710 -20z m342 -379 c32 3 58 3 58
0 0 -3 30 -4 67 -3 38 2 120 3 183 2 305 0 372 1 381 6 5 4 9 3 9 -2 0 -4 30
-7 67 -6 56 2 271 3 308 1 6 0 30 0 55 1 25 1 78 1 118 1 41 0 78 2 83 6 5 3
9 2 9 -3 0 -4 30 -7 67 -6 38 2 120 2 183 2 63 0 158 1 210 1 52 1 101 1 108
1 102 -6 372 -2 384 5 4 3 8 2 8 -3 0 -4 30 -7 67 -6 38 2 120 2 183 2 156 -1
212 1 222 7 4 3 8 2 8 -3 0 -4 30 -7 67 -6 58 2 256 3 303 2 8 0 80 0 160 0
80 0 154 0 165 0 11 0 74 0 140 0 66 0 125 -1 130 -1 6 0 28 0 50 1 22 1 49 1
60 0 119 -3 347 1 357 7 4 3 8 2 8 -3 0 -4 30 -7 67 -6 38 2 120 2 183 2 156
-1 212 1 222 7 4 3 8 2 8 -3 0 -4 30 -7 67 -6 58 2 256 3 303 2 8 0 80 0 160
0 80 0 154 0 165 0 11 0 74 0 140 0 66 0 125 -1 130 -1 6 0 28 0 50 1 22 1 49
1 60 0 119 -3 347 1 357 7 4 3 8 2 8 -3 0 -4 30 -7 67 -6 38 2 120 2 183 2
156 -1 212 1 222 7 4 3 8 2 8 -3 0 -4 30 -7 67 -6 276 9 323 2 384 -56 42 -41
53 -73 56 -165 4 -103 4 -278 0 -379 -1 -37 2 -67 6 -67 5 0 6 -4 3 -8 -7 -11
-9 -167 -7 -417 0 -11 0 -49 0 -85 0 -36 -1 -69 0 -75 1 -113 0 -255 -2 -308
-1 -37 2 -67 6 -67 5 0 6 -4 3 -8 -7 -11 -9 -167 -7 -417 0 -11 0 -49 0 -85 0
-36 -1 -69 0 -75 1 -113 0 -255 -2 -308 -1 -37 2 -67 6 -67 5 0 5 -5 2 -10 -4
-6 -6 -77 -5 -158 1 -81 2 -151 2 -157 0 -5 -1 -39 -1 -75 0 -36 -1 -90 0
-120 0 -30 -1 -97 -1 -147 -1 -51 1 -97 4 -102 4 -5 3 -12 -2 -15 -4 -2 -6
-26 -3 -53 4 -26 4 -76 1 -111 -3 -35 -3 -67 1 -73 3 -5 3 -29 0 -52 -3 -23
-4 -62 -1 -87 3 -25 3 -72 0 -106 -3 -33 -2 -77 1 -97 3 -21 2 -40 -3 -43 -4
-3 -5 -10 -2 -16 7 -11 7 -88 -1 -145 -7 -52 -41 -100 -100 -137 -33 -22 -87
-27 -275 -25 -154 1 -212 -1 -222 -7 -4 -3 -8 -2 -8 3 0 4 -30 7 -67 6 -38 -2
-120 -2 -183 -2 -156 1 -212 -1 -222 -7 -4 -3 -8 -2 -8 3 0 4 -30 7 -67 6 -53
-2 -195 -3 -308 -2 -5 1 -39 0 -75 0 -36 0 -72 0 -80 0 -8 0 -80 0 -160 0 -80
0 -152 0 -160 0 -8 0 -80 0 -160 0 -80 0 -152 0 -160 0 -8 0 -80 0 -160 0 -80
0 -152 0 -160 0 -8 0 -80 0 -160 0 -80 0 -152 0 -160 0 -8 0 -80 0 -160 0 -80
0 -152 0 -160 0 -8 0 -80 0 -160 0 -80 0 -152 0 -160 0 -8 0 -80 0 -160 0 -80
0 -152 0 -160 1 -8 0 -37 -1 -65 -2 -27 -1 -116 -1 -197 0 -81 1 -152 -1 -158
-5 -5 -3 -10 -3 -10 2 0 4 -30 7 -67 6 -38 -2 -120 -2 -183 -2 -156 1 -212 -1
-222 -7 -4 -3 -8 -2 -8 3 0 4 -30 7 -67 6 -38 -2 -120 -2 -183 -2 -156 1 -212
-1 -222 -7 -4 -3 -8 -2 -8 3 0 4 -30 7 -67 6 -38 -2 -120 -2 -183 -2 -156 1
-212 -1 -222 -7 -4 -3 -8 -2 -8 3 0 4 -30 7 -67 6 -38 -2 -120 -2 -183 -2
-156 1 -212 -1 -222 -7 -4 -3 -8 -2 -8 3 0 4 -30 7 -67 6 -53 -2 -195 -3 -308
-2 -5 1 -39 0 -75 0 -36 0 -72 0 -80 0 -8 0 -80 0 -160 0 -80 0 -154 0 -165 0
-11 0 -76 0 -145 0 -164 -1 -201 8 -250 59 -59 60 -60 70 -59 390 0 8 0 47 -1
85 -1 39 -1 112 0 162 1 51 -1 97 -4 102 -4 5 -2 12 4 16 6 4 8 11 4 16 -3 5
-5 51 -4 102 1 89 1 103 -1 130 -1 6 0 30 1 52 1 32 2 192 1 300 0 11 0 49 0
85 0 36 1 70 0 75 -1 113 0 255 2 308 1 37 -2 67 -6 67 -5 0 -5 5 -2 10 4 6 6
77 5 158 -1 81 -2 152 -2 157 0 6 1 39 1 75 0 36 1 90 0 120 0 30 1 97 1 147
1 51 -1 97 -4 102 -4 5 -2 12 4 16 6 4 8 11 4 16 -3 5 -5 51 -4 102 1 89 1
103 -1 130 -1 6 0 30 1 52 1 32 2 192 1 300 0 11 0 49 0 85 0 36 1 70 0 75 -1
113 0 255 2 308 1 37 -2 67 -6 67 -5 0 -5 4 -2 10 3 5 6 71 6 147 1 152 8 180
58 230 44 44 79 59 140 60 29 1 55 3 57 6 2 2 21 1 41 -2 21 -4 64 -4 95 -1z"/>
<path d="M1216 5518 c-12 -7 -15 -30 -16 -111 0 -56 -1 -132 -3 -170 -1 -37 2
-67 6 -67 5 0 6 -4 3 -8 -6 -10 -8 -66 -7 -222 0 -63 0 -145 -2 -183 -1 -37 2
-67 6 -67 5 0 5 -5 2 -10 -4 -6 -6 -77 -5 -158 1 -81 1 -169 0 -197 -1 -27 -2
-57 -2 -65 1 -8 1 -80 1 -160 0 -80 0 -152 0 -160 0 -8 0 -80 0 -160 0 -80 0
-152 0 -160 0 -8 0 -80 0 -160 0 -80 0 -152 0 -160 0 -8 0 -44 0 -80 0 -36 -1
-69 0 -75 2 -192 2 -244 0 -251 -1 -5 -1 -28 0 -51 1 -33 5 -42 19 -42 53 1
199 0 225 -2 6 0 54 0 104 1 51 1 97 -1 102 -4 5 -4 12 -2 16 4 4 6 11 8 16 4
5 -3 51 -5 102 -4 50 1 120 1 154 1 l62 0 3 94 c2 52 -1 95 -5 95 -5 0 -6 4
-3 8 6 10 8 66 7 222 0 63 0 145 2 183 1 37 -2 67 -6 67 -5 0 -6 4 -3 8 6 10
8 66 7 222 0 63 0 145 2 183 1 37 0 67 -3 67 -3 0 -3 24 0 53 3 28 3 85 0 125
-3 41 -3 75 -1 78 2 2 3 35 2 74 -2 44 2 70 8 70 6 0 11 -4 11 -8 0 -8 3 -12
140 -182 52 -65 117 -147 145 -182 27 -35 54 -68 60 -75 5 -7 15 -18 20 -25 6
-7 38 -47 72 -89 35 -42 79 -99 100 -125 20 -27 41 -54 47 -60 6 -6 22 -25 36
-43 14 -18 32 -40 40 -50 8 -10 26 -33 40 -51 45 -60 72 -90 80 -90 4 0 28 26
54 58 25 31 55 68 66 82 29 35 58 72 78 95 9 11 24 31 33 45 9 14 29 39 44 55
14 17 47 57 73 90 25 33 51 65 57 71 5 6 21 25 35 43 14 18 48 61 75 95 28 33
66 81 85 106 19 25 39 50 45 56 5 6 21 25 35 43 29 37 44 56 85 106 l30 37 5
-73 c3 -41 3 -99 0 -129 -3 -30 -3 -68 0 -85 3 -16 3 -50 0 -75 -3 -24 -3 -95
0 -157 3 -61 2 -128 -1 -147 -3 -20 -2 -36 3 -36 5 0 6 -4 3 -10 -3 -5 -6 -36
-5 -67 0 -32 1 -66 1 -75 0 -10 0 -67 0 -128 0 -60 0 -116 0 -122 1 -7 0 -44
0 -83 0 -38 0 -79 0 -90 0 -60 1 -243 1 -257 -1 -14 8 -18 41 -19 23 -1 45 -1
49 0 4 0 51 1 105 1 54 0 130 1 168 1 39 0 75 1 80 1 6 0 76 -1 157 -2 81 -1
152 1 157 5 5 3 12 1 16 -5 18 -30 27 21 26 148 0 9 0 44 0 77 0 33 0 65 0 70
0 6 0 62 0 125 0 63 0 123 0 133 -1 9 -1 24 -1 32 -1 29 -1 240 0 274 0 19 3
38 6 43 3 4 0 8 -6 8 -6 0 -8 4 -5 10 3 5 6 36 5 67 0 32 -1 66 -1 76 0 288 0
307 7 319 3 4 0 8 -6 8 -6 0 -8 4 -5 10 3 5 6 38 5 72 -1 35 0 81 1 103 1 22
1 47 1 55 -1 8 -1 56 -1 105 0 50 0 96 0 103 -2 24 -2 44 -2 155 0 150 1 179
7 189 3 4 0 8 -6 8 -6 0 -8 4 -5 10 3 5 6 36 5 67 0 32 -1 66 -1 76 0 9 0 67
0 127 0 61 0 116 0 123 0 6 1 34 2 60 1 27 -3 53 -9 59 -11 11 -96 13 -112 3
-6 -4 -10 -3 -10 2 0 4 -30 7 -67 6 -53 -2 -239 -3 -308 -1 -5 0 -37 -1 -70
-1 -33 0 -67 0 -75 0 -8 0 -47 0 -85 -1 -67 -1 -72 -3 -93 -33 -12 -18 -33
-45 -48 -62 -14 -16 -35 -43 -47 -59 -12 -15 -45 -56 -72 -90 -28 -33 -66 -81
-85 -106 -19 -25 -37 -47 -40 -50 -3 -3 -41 -50 -85 -105 -43 -55 -83 -101
-87 -103 -4 -2 -8 -10 -8 -17 0 -7 -3 -15 -7 -17 -5 -1 -35 -37 -68 -78 -33
-41 -73 -91 -90 -111 -16 -19 -43 -53 -60 -74 -16 -21 -36 -44 -42 -51 -7 -7
-13 -17 -13 -22 0 -28 -29 -13 -63 32 -20 27 -41 52 -45 55 -4 4 -19 22 -32
41 -14 19 -32 42 -40 51 -8 8 -25 29 -37 45 -32 41 -63 80 -98 123 -16 21 -43
54 -60 75 -16 22 -35 44 -40 50 -6 6 -24 29 -40 51 -17 22 -36 46 -43 53 -7 8
-25 30 -40 50 -15 21 -29 39 -32 42 -3 3 -24 27 -45 55 -22 27 -44 55 -50 61
-5 6 -21 26 -35 44 -14 19 -35 44 -46 57 -12 13 -32 39 -45 58 -23 32 -26 34
-89 35 -36 1 -83 0 -105 -1 -22 0 -46 -1 -52 0 -27 2 -41 2 -130 1 -51 -1 -97
1 -102 4 -5 4 -12 3 -15 -2 -3 -5 -27 -6 -53 -3 -26 3 -75 4 -108 1 -33 -3
-79 -2 -102 1 -23 3 -48 2 -57 -3z"/>
<path d="M5806 5522 c-4 -8 -7 -94 -5 -182 0 -8 0 -116 0 -240 0 -124 0 -234
0 -245 0 -11 0 -181 -1 -377 l-1 -357 -202 -1 c-111 -1 -209 -2 -217 -1 -90 3
-364 0 -369 -4 -3 -4 3 -14 14 -23 11 -10 35 -35 54 -57 19 -22 57 -65 85 -95
28 -31 87 -96 131 -144 44 -49 91 -101 105 -116 24 -26 149 -163 199 -219 13
-14 49 -54 80 -87 31 -34 90 -99 131 -145 41 -46 94 -104 117 -129 23 -25 54
-58 69 -75 180 -202 203 -224 216 -211 15 15 165 180 188 206 20 23 168 185
205 225 17 18 62 68 100 110 39 43 81 90 95 105 14 15 61 67 105 116 44 48 87
95 95 104 8 9 53 58 100 110 47 52 92 101 100 110 29 32 115 127 153 170 21
23 36 45 33 47 -2 2 -51 4 -108 4 -122 -1 -247 -1 -495 0 l-183 0 -1 132 c0
73 0 164 0 202 0 39 0 158 0 265 0 107 0 204 0 215 0 11 0 106 0 210 0 105 0
231 0 282 0 98 -5 107 -57 94 -12 -3 -73 -4 -135 -1 -61 3 -136 3 -164 0 -29
-3 -53 -3 -53 0 0 3 -30 4 -67 3 -129 -5 -294 -4 -303 2 -5 3 -11 1 -14 -3z"/>
</g>
</svg>
